PathFileType	4	(X/Y/Z)	c:/Users/goper/Files/vsCode/490R/osim_files/A03/A03_SSWS_02.trc
DataRate	CameraRate	NumFrames	NumMarkers	Units                	OrigDataRate	OrigDataStartFrame	OrigNumFrames
250.00	250.00	7	36	mm	250.0	1716	2745
                Frame#	Time	LPSIS			LASIS			LTH1			LTH2			LTH3			LTH4			LLFE			LMFE			LSH1			LSH2			LSH3			LSH4			LLMAL			LMMAL			LCAL			LMTP5			LTOE			LMTP1			RPSIS			RASIS			RTH1			RTH2			RTH3			RTH4			RLFE			RMFE			RSH1			RSH2			RSH3			RSH4			RLMAL			RMMAL			RCAL			RMTP1			RTOE			RMTP5		
		X1	Y1	Z1	X2	Y2	Z2	X3	Y3	Z3	X4	Y4	Z4	X5	Y5	Z5	X6	Y6	Z6	X7	Y7	Z7	X8	Y8	Z8	X9	Y9	Z9	X10	Y10	Z10	X11	Y11	Z11	X12	Y12	Z12	X13	Y13	Z13	X14	Y14	Z14	X15	Y15	Z15	X16	Y16	Z16	X17	Y17	Z17	X18	Y18	Z18	X19	Y19	Z19	X20	Y20	Z20	X21	Y21	Z21	X22	Y22	Z22	X23	Y23	Z23	X24	Y24	Z24	X25	Y25	Z25	X26	Y26	Z26	X27	Y27	Z27	X28	Y28	Z28	X29	Y29	Z29	X30	Y30	Z30	X31	Y31	Z31	X32	Y32	Z32	X33	Y33	Z33	X34	Y34	Z34	X35	Y35	Z35	X36	Y36	Z36

1716	6.86000	-2643.53491	1070.69592	281.57837	-2883.05615	997.40265	404.44693	-2963.65894	666.90283	482.84451	-2983.58545	629.28760	482.57742	-3021.37451	686.84546	462.06851	-3030.75073	644.05908	464.55856	0.00000	0.00000	0.00000	-3015.96582	564.38788	318.32217	-2907.42480	517.14185	461.08786	-2884.25635	474.64780	455.63721	-2957.83740	480.40952	457.01511	-2926.35522	445.47458	447.90738	-2722.54834	198.08923	394.77951	-2740.16504	201.05206	297.71500	-2656.36157	222.38721	338.32285	-2819.39380	69.53117	404.32559	-2864.25928	85.86253	340.07864	-2831.40820	84.80142	291.92789	-2645.21387	1079.54431	198.10022	-2889.66479	989.73846	107.93156	-2827.10303	621.17859	74.41032	-2835.36719	578.13031	83.64424	-2888.99292	627.44720	77.98238	-2890.33203	584.25751	87.23372	-2859.76440	544.55396	100.07759	-2901.61572	555.49670	217.14636	-2801.59985	479.33444	103.85068	-2796.12085	438.07220	94.07309	-2864.07568	466.64340	98.02251	-2848.85498	422.44821	90.40749	-2782.32812	124.05576	155.60745	-2825.02075	123.66222	239.79135	-2733.55664	93.09692	219.76646	-2942.30225	59.33292	256.05759	-2968.03003	82.78963	204.95596	-2936.35010	44.37262	138.57167
1717	6.86400	-2647.38940	1071.28918	281.81110	-2887.32007	998.22516	403.79312	-2969.83179	668.39270	481.15311	-2990.14209	630.99280	480.69180	-3026.54980	688.56415	460.17828	-3037.05566	646.18872	462.48209	0.00000	0.00000	0.00000	-3020.89893	565.97211	316.49176	-2915.10278	516.97479	459.59003	-2892.93823	473.91946	454.29102	-2966.38794	481.44806	455.50681	-2935.91528	445.94498	446.46570	-2737.57715	193.57803	394.11328	-2754.21655	196.87389	297.19482	-2670.69360	216.23351	337.83264	-2837.32910	67.29280	403.53036	-2881.73901	84.65772	339.15140	-2848.75049	82.70870	291.03290	-2648.56641	1080.25647	198.23950	-2893.36328	990.00006	107.80916	-2828.32178	621.39185	74.74524	-2836.35962	578.25189	84.03011	-2890.20020	627.28027	78.28012	-2891.36133	584.13654	87.57597	-2860.54883	544.54620	100.47984	-2902.49658	555.36133	217.54710	-2802.82202	479.36313	104.38156	-2796.54736	438.24628	94.61849	-2864.55029	466.61093	98.43065	-2849.28125	422.51138	90.83242	-2782.34302	124.19542	155.92485	-2825.14233	123.64697	240.04027	-2733.63623	92.79259	220.57974	-2942.78540	59.31676	256.09720	-2968.02661	82.76152	205.03192	-2936.29639	44.45759	138.62630
1718	6.86800	-2651.43140	1072.18176	281.85886	-2891.54688	998.99994	403.17688	-2975.90796	669.81763	479.49515	-2996.55005	632.57635	478.83481	-3032.32007	690.48468	458.28293	-3043.22144	648.20746	460.43179	0.00000	0.00000	0.00000	-3028.16919	568.66296	314.75845	-2922.45142	516.67749	458.14972	-2902.07471	473.10199	452.79868	-2974.76440	482.39072	453.93301	-2944.94946	446.01248	444.98599	-2752.71704	189.07655	393.43448	-2770.91602	192.46973	296.77121	-2685.17896	210.16241	337.27008	-2855.49731	65.24397	402.74567	-2899.34741	83.56937	338.23920	-2865.45874	80.70379	290.07407	-2652.41504	1080.95508	198.33905	-2897.23633	990.27167	107.88000	-2829.52954	621.53101	75.04285	-2837.34399	578.34790	84.42386	-2891.46777	627.16083	78.62039	-2892.40991	583.98163	87.95267	-2861.42725	544.57086	100.89905	-2903.41138	555.23901	217.96776	-2803.46729	479.49374	104.90070	-2796.98218	438.37579	95.19196	-2865.14380	466.61996	98.86195	-2849.74658	422.57605	91.29060	-2782.32983	124.30140	156.29442	-2826.34595	123.88456	240.13628	-2733.60913	92.72894	220.91731	-2942.79321	59.20457	256.15979	-2968.24463	83.36548	204.44356	-2936.26953	44.57583	138.65529
1719	6.87200	-2655.37500	1072.64026	282.09982	-2895.76636	999.69141	402.59921	-2981.89526	671.18176	477.83167	-3002.76904	634.09772	476.96683	-3038.01074	692.33923	456.39374	-3049.23047	650.10046	458.36273	0.00000	0.00000	0.00000	-3032.90942	569.98901	312.87991	-2930.26416	516.34827	456.58911	-2911.24878	470.64719	452.40491	-2983.10571	483.32397	452.39301	-2954.76562	447.63959	442.68604	-2767.97534	184.65651	392.67007	-2786.18579	188.63385	295.92081	-2699.92334	204.12025	336.60165	-2873.70605	63.33469	402.01196	-2917.00415	82.60613	337.36435	-2883.07837	79.05870	289.72122	-2656.22363	1081.61682	198.39578	-2898.98584	989.44678	106.10051	-2830.82104	621.62482	75.43209	-2838.40234	578.43835	84.79285	-2892.83350	626.99701	78.97666	-2893.45728	583.80316	88.33432	-2862.23511	544.53308	101.33738	-2904.32642	555.12885	218.40201	-2803.34326	479.66806	105.48984	-2797.51196	438.49619	95.76694	-2865.73804	466.61276	99.31036	-2850.11938	422.57043	91.78265	-2781.96533	124.33806	156.77417	-2826.02588	123.51556	240.55415	-2733.61719	92.64575	221.28909	-2942.36865	59.01173	256.25323	-2968.22168	83.29971	204.58313	-2936.22339	44.68100	138.72969
1720	6.87600	-2659.35742	1073.23572	282.26541	-2899.95410	1000.30402	402.06277	-2987.64697	672.39172	476.15475	-3008.78760	635.46643	475.05621	-3043.48853	694.01044	454.55252	-3055.04395	651.90570	456.31125	0.00000	0.00000	0.00000	-3038.77539	571.82397	311.07312	-2937.38599	515.91980	455.08954	-2919.52661	470.10205	451.04507	-2991.27832	484.22672	450.83966	-2964.20679	448.15900	441.14359	-2783.37964	180.29156	391.91080	-2801.32764	184.56654	295.12292	-2714.74927	198.06772	336.00089	-2892.02979	61.57774	401.32129	-2934.73145	81.77506	336.56302	-2901.14282	77.72785	288.99619	-2660.06348	1082.21057	198.51074	-2902.19482	989.41394	105.72985	-2832.10522	621.70459	75.83952	-2839.48755	578.52863	85.21152	-2894.15601	626.81519	79.34501	-2894.55103	583.59686	88.75242	-2863.10864	544.45282	101.78519	-2906.16553	555.47467	218.54193	-2804.01440	479.78513	106.04144	-2799.01123	438.34824	96.30526	-2866.40259	466.56549	99.78488	-2850.59399	422.53821	92.24181	-2782.32886	124.55658	157.07089	-2826.07153	123.37860	240.95299	-2733.53809	92.72475	221.08667	-2942.40234	58.85765	256.35733	-2968.23975	83.29794	204.71252	-2936.27124	45.09716	138.53148
1721	6.88000	-2663.28906	1073.84546	282.42444	-2904.15283	1000.87262	401.48233	-2993.21753	673.47888	474.45367	-3014.67871	636.70898	473.15765	-3048.81519	695.63135	452.72598	-3060.70044	653.58850	454.32596	0.00000	0.00000	0.00000	-3044.48315	573.54584	309.29599	-2944.65381	515.41180	453.48239	-2928.36279	469.21887	449.50632	-2999.33960	485.04312	449.25388	-2972.09888	446.32959	440.96796	-2798.85791	176.00017	391.16046	-2816.60376	180.56615	294.28867	-2729.65747	192.03505	335.21085	-2910.50098	60.05026	400.54587	-2952.54492	81.11263	335.77386	-2918.15894	75.46239	288.99197	-2663.88013	1082.83008	198.64857	-2905.41577	989.36481	105.36983	-2833.44043	621.77148	76.22167	-2840.64673	578.53986	85.66825	-2895.52319	626.59991	79.72088	-2895.69336	583.39648	89.18101	-2863.99854	544.39288	102.21734	-2908.76343	556.15845	218.34944	-2804.69824	479.89438	106.55946	-2799.62256	438.44650	96.90271	-2867.00049	466.50308	100.24447	-2851.09424	422.51706	92.74055	-2781.94702	124.61749	157.64043	-2826.08374	123.20411	241.38989	-2733.29517	92.87222	221.28806	-2942.45166	58.70603	256.49243	-2968.23950	83.27509	204.82268	-2936.10767	44.91863	138.87495
1722	6.88400	-2667.27222	1074.46301	282.62350	-2908.34717	1001.39172	401.00241	-2998.63306	674.45056	472.73434	-3020.42456	637.86536	471.24414	-3054.05444	697.11005	450.92529	-3066.23560	655.15491	452.33386	0.00000	0.00000	0.00000	-3050.03223	575.14166	307.51147	-2951.85010	514.86389	451.98346	-2936.75635	468.39984	448.03839	-3007.32300	485.88660	447.70572	-2981.38940	446.63361	439.80597	-2814.42700	171.80083	390.36960	-2832.17041	176.64326	293.35114	-2744.56763	185.96764	334.60556	-2928.85962	58.64183	399.91763	-2970.34351	80.62241	335.01657	-2936.12769	74.05568	288.24304	-2667.68579	1083.40796	198.82262	-2908.64868	989.26672	104.97842	-2834.78442	621.80090	76.61636	-2841.76025	578.57953	86.10252	-2896.87451	626.35187	80.11393	-2896.87280	583.18005	89.62926	-2864.75244	544.02972	102.83189	-2906.42773	554.20697	220.14038	-2806.16089	479.84912	107.17043	-2800.20581	438.56357	97.49626	-2867.69556	466.38553	100.75328	-2851.66357	422.49704	93.27136	-2782.28394	124.82076	158.05414	-2826.34863	123.25632	241.75714	-2733.25244	92.69949	221.78191	-2942.22583	58.45694	256.66702	-2968.24170	83.25768	204.98114	-2936.04639	45.06542	138.96588
